<svg xmlns="http://www.w3.org/2000/svg" width="40" height="40" viewBox="0 0 40 40">
  <g id="그룹_14801" data-name="그룹 14801" transform="translate(-24 -28)">
    <path id="패스_4733" data-name="패스 4733" d="M17.143,0h5.714A17.143,17.143,0,0,1,40,17.143v5.714A17.143,17.143,0,0,1,22.857,40H17.143A17.143,17.143,0,0,1,0,22.857V17.143A17.143,17.143,0,0,1,17.143,0Z" transform="translate(24 28)" fill="#f2f2f5" fill-rule="evenodd"/>
    <g id="그룹_14802" data-name="그룹 14802" transform="translate(0 -0.667)">
      <path id="패스_4734" data-name="패스 4734" d="M19.955,19.629a4.4,4.4,0,1,0-4.342-4.4A4.37,4.37,0,0,0,19.955,19.629Z" transform="translate(24 28)" fill="#0068ff"/>
      <path id="패스_4735" data-name="패스 4735" d="M17.91,21h4.182A6.909,6.909,0,0,1,29,27.91,2.591,2.591,0,0,1,26.41,30.5H13.592A2.591,2.591,0,0,1,11,27.91,6.909,6.909,0,0,1,17.91,21Z" transform="translate(24 28)" fill="#0068ff"/>
    </g>
  </g>
</svg>
