<svg id="_1-icon-2-illustration-5-my-insurance-insurance-02_5_" data-name="1-icon-2-illustration-5-my-insurance-insurance-02 (5)" xmlns="http://www.w3.org/2000/svg" width="40" height="40" viewBox="0 0 40 40">
  <g id="그룹_3780" data-name="그룹 3780">
    <path id="패스_1192" data-name="패스 1192" d="M17.142,0h5.715A17.143,17.143,0,0,1,40,17.142v5.715A17.143,17.143,0,0,1,22.858,40H17.142A17.143,17.143,0,0,1,0,22.858V17.142A17.143,17.143,0,0,1,17.142,0Z" fill="#e5e5e8" fill-rule="evenodd"/>
    <path id="패스_1193" data-name="패스 1193" d="M21.833,32.15c5.983,0,10.833-.139,10.833-6.093s-5.047-9.7-10.833-9.7S11,20.1,11,26.057s4.85,6.093,10.833,6.093ZM17.586,15.9l-1.32-1.4a.909.909,0,0,1,.114-1.375,1.173,1.173,0,0,1,.783-.233c.293.019.621.233.913.233,1.9,0,1.767-1.12,3.757-1.12s1.9,1.121,3.792,1.121c.3,0,.6-.215.9-.235a1.053,1.053,0,0,1,1.161.9.912.912,0,0,1-.255.7L26.076,15.9h-8.49Z" transform="translate(-1.834 -2)" fill="#20bb94" fill-rule="evenodd"/>
    <path id="패스_1194" data-name="패스 1194" d="M26.78,22.755a.819.819,0,0,1,.513,1.038l-.319.938h.762a.819.819,0,1,1,0,1.638H26.419l-.953,2.813a.819.819,0,0,1-1.552,0l-1.055-3.1-1.05,3.1a.82.82,0,0,1-1.517.089l-.035-.089L19.3,26.37H17.986a.819.819,0,1,1,0-1.638h.761l-.318-.939a.82.82,0,0,1,1.553-.526l1.05,3.1,1.05-3.1a.82.82,0,0,1,1.517-.089l.035.088,1.056,3.1,1.053-3.1a.819.819,0,0,1,1.039-.512Z" transform="translate(-2.861 -3.785)" fill="#fff"/>
    <path id="패스_1195" data-name="패스 1195" d="M26.955,16.207a1.117,1.117,0,0,1,0,2.233H19.01a1.117,1.117,0,0,1,0-2.233Z" transform="translate(-2.982 -2.701)" fill="#0e9f7b"/>
  </g>
  <path id="패스_1234" data-name="패스 1234" d="M17.142,0h5.715A17.143,17.143,0,0,1,40,17.142v5.715A17.143,17.143,0,0,1,22.858,40H17.142A17.143,17.143,0,0,1,0,22.858V17.142A17.143,17.143,0,0,1,17.142,0Z" fill="#f2f2f5" fill-rule="evenodd"/>
  <g id="그룹_14522" data-name="그룹 14522" transform="translate(11.724 8.103)">
    <rect id="사각형_1233" data-name="사각형 1233" width="16.552" height="23.793" rx="3.6" fill="#0068ff"/>
    <circle id="타원_60" data-name="타원 60" cx="1.034" cy="1.034" r="1.034" transform="translate(7.241 19.655)" fill="#c1d9fe"/>
    <rect id="사각형_1234" data-name="사각형 1234" width="12.414" height="15.517" rx="1.8" transform="translate(2.069 2.069)" fill="#fff"/>
  </g>
</svg>
