<svg id="그룹_14805" data-name="그룹 14805" xmlns="http://www.w3.org/2000/svg" width="40" height="40" viewBox="0 0 40 40">
  <path id="패스_1192" data-name="패스 1192" d="M17.142,0h5.715A17.143,17.143,0,0,1,40,17.142v5.715A17.143,17.143,0,0,1,22.858,40H17.142A17.143,17.143,0,0,1,0,22.858V17.142A17.143,17.143,0,0,1,17.142,0Z" fill="#f2f2f5"/>
  <g id="그룹_14804" data-name="그룹 14804" transform="translate(0.847 0.877)">
    <path id="패스_4738" data-name="패스 4738" d="M9.934,20.929a4.752,4.752,0,0,1,.767-5.719l1.1-1.1a2.074,2.074,0,0,1,2.933,0l2.2,2.2a2.074,2.074,0,0,1,0,2.933,2.074,2.074,0,0,0,0,2.933L19.9,25.14a2.067,2.067,0,0,0,2.928,0,2.068,2.068,0,0,1,2.928,0l2.18,2.181a2.074,2.074,0,0,1,0,2.933l-1.1,1.1a4.752,4.752,0,0,1-5.721.765,33.308,33.308,0,0,1-6.378-4.8A33.311,33.311,0,0,1,9.934,20.929Z" transform="translate(-1.551 -2.446)" fill="#1daa87"/>
    <path id="패스_4739" data-name="패스 4739" d="M29.43,22.45a7.333,7.333,0,0,0-5.866-5.866" transform="translate(-4.818 -3.152)" fill="none" stroke="#0e9f7b" stroke-linecap="round" stroke-miterlimit="10" stroke-width="2"/>
    <path id="패스_4740" data-name="패스 4740" d="M33.6,19.9a11.219,11.219,0,0,0-9.532-9.532" transform="translate(-4.933 -1.729)" fill="none" stroke="#61b19d" stroke-linecap="round" stroke-miterlimit="10" stroke-width="2"/>
  </g>
</svg>
